<?xml version="1.0" standalone="no"?>
<!DOCTYPE svg PUBLIC "-//W3C//DTD SVG 20010904//EN"
 "http://www.w3.org/TR/2001/REC-SVG-20010904/DTD/svg10.dtd">
<svg version="1.0" xmlns="http://www.w3.org/2000/svg"
 width="2048.000000pt" height="2048.000000pt" viewBox="0 0 2048.000000 2048.000000"
 preserveAspectRatio="xMidYMid meet">
<metadata>
Created by potrace 1.14, written by Peter Selinger 2001-2017
</metadata>
<g transform="translate(0.000000,2048.000000) scale(0.100000,-0.100000)"
fill="#000000" stroke="none">
<path d="M10068 18138 l-3 -163 -275 -5 -275 -5 0 -150 -1 -150 -364 -2 c-201
-1 -472 -2 -602 -3 l-238 0 0 -160 0 -160 -262 0 c-145 0 -273 3 -286 6 -21 6
-23 12 -21 73 0 36 1 105 0 154 l-1 87 -200 0 -200 0 -1 23 c-1 12 0 82 1 155
l1 132 -343 0 c-189 1 -418 0 -510 0 -156 -1 -168 0 -177 19 -6 11 -11 29 -11
40 l0 21 -757 -3 -758 -2 -1 -967 c-1 -533 1 -969 5 -969 7 -1 103 -6 168 -8
l41 -1 0 -382 c1 -211 1 -391 1 -400 1 -16 15 -18 155 -18 131 0 155 -2 160
-16 3 -8 6 -96 7 -195 0 -131 3 -179 12 -180 7 -1 80 -2 162 -3 l150 -1 1
-180 c0 -99 -2 -186 -4 -192 -3 -10 -45 -13 -163 -13 l-159 0 0 -202 0 -203
-176 3 -175 3 3 -221 c2 -121 1 -225 -3 -231 -7 -11 -245 -14 -274 -3 -12 5
-15 -3 -16 -42 0 -61 0 -346 0 -356 1 -5 66 -8 146 -8 l145 0 0 -145 0 -145
170 0 170 0 0 -174 c0 -149 -2 -175 -16 -180 -9 -3 -114 -6 -235 -6 l-219 0 0
-450 0 -450 228 0 c125 0 232 -4 238 -8 7 -5 10 -81 10 -231 l-1 -225 223 3
222 2 0 -202 0 -202 304 6 304 5 6 -37 c3 -20 6 -119 6 -219 l0 -184 498 4
497 3 2 -212 2 -212 -138 4 -138 5 2 -160 1 -160 -163 0 -163 0 0 -180 0 -180
-150 0 -150 0 0 -132 c-1 -73 -1 -204 0 -291 l1 -157 -171 5 -170 5 0 -132
c-2 -631 1 -1542 6 -1550 4 -6 67 -8 154 -6 90 2 151 -1 157 -7 12 -14 11
-1628 -2 -1637 -5 -4 -59 -5 -120 -3 -60 2 -207 7 -325 10 -118 3 -228 7 -245
9 -16 2 -83 7 -147 11 -100 6 -118 10 -119 23 -1 10 0 73 1 141 l2 123 -84 -7
c-46 -3 -99 -8 -118 -10 -19 -2 -73 -7 -120 -10 -47 -4 -93 -9 -102 -11 -20
-6 -21 -2 -20 128 1 54 -3 78 -11 78 -40 0 -356 -42 -374 -50 -18 -8 -37 1
-110 49 -181 118 -722 503 -857 608 -70 56 -205 155 -217 161 -3 1 -4 -266 -3
-595 1 -329 3 -899 3 -1266 l1 -669 155 6 156 6 -3 -172 -2 -173 296 -3 296
-2 5 -23 c3 -12 6 -87 6 -166 0 -79 2 -146 4 -147 4 -4 1432 -8 1840 -5 l217
1 0 174 0 174 210 -2 c115 -1 213 -6 217 -10 4 -4 8 -76 9 -159 l1 -152 168 0
169 0 -1 -30 c0 -16 -1 -89 -2 -161 l-1 -130 -560 1 c-393 1 -560 -2 -561 -9
-1 -6 -2 -27 -3 -46 0 -19 -4 -37 -8 -40 -3 -3 -237 -5 -520 -4 l-513 1 -3
-46 c-1 -25 -7 -50 -12 -55 -5 -5 -112 -9 -249 -9 l-240 1 3 -99 c1 -54 0
-100 -3 -100 -3 -1 -206 -3 -451 -5 -245 -1 -472 -3 -506 -3 l-60 -1 -1 -95
c-1 -82 1 -95 15 -96 9 -1 253 0 542 1 289 1 638 3 775 3 l250 1 3 -82 3 -82
107 -1 c59 -1 181 -2 272 -3 l165 -2 3 -39 c1 -22 4 -58 5 -80 l2 -40 50 -3
c28 -1 447 -4 933 -5 485 -1 882 -5 882 -10 0 -4 15 -7 33 -7 17 1 154 1 302
1 149 1 629 2 1068 3 439 0 802 -1 805 -4 4 -3 7 -30 7 -60 l0 -55 568 -2 567
-1 0 41 c0 90 -46 82 451 82 l439 0 1 -25 c1 -14 2 -36 3 -50 1 -21 7 -26 41
-30 32 -4 877 -5 936 -1 12 1 15 13 15 58 l-1 57 730 0 c402 0 733 4 736 8 3
5 5 45 4 88 -2 75 0 80 19 81 12 1 156 1 322 1 l300 0 -1 74 c0 41 1 74 4 75
9 2 907 7 1311 8 l365 1 -2 91 c-2 51 -5 94 -8 98 -3 3 -236 5 -517 6 -503 0
-511 0 -514 20 -2 11 -4 59 -5 106 l-1 86 -192 0 c-373 1 -474 4 -478 16 -2 7
-4 28 -3 48 l1 36 -313 -3 c-172 -2 -312 0 -312 4 1 4 1 30 0 58 l-1 51 -492
-3 c-271 -3 -581 -6 -688 -7 -107 -2 -201 -1 -207 1 -10 3 -13 44 -13 161 l0
156 168 0 167 0 3 153 c2 111 6 152 15 153 34 2 251 -3 272 -7 l25 -4 0 175 0
175 144 0 143 0 2 180 c1 99 4 187 7 195 5 13 37 15 195 15 l189 0 0 189 c0
104 3 196 6 205 5 14 30 16 170 16 l164 0 0 210 0 210 160 0 160 0 0 184 c0
158 2 185 16 190 9 3 83 6 165 6 l149 0 2 223 3 222 153 3 c111 2 152 6 153
15 0 6 0 101 -1 210 l-1 197 150 0 151 0 0 28 c1 15 0 111 0 215 l-1 187 166
0 165 0 0 470 0 470 145 0 145 0 0 203 0 202 -150 -3 -150 -4 0 186 0 186
-139 0 c-77 0 -146 3 -155 6 -14 5 -16 32 -16 190 l0 183 -305 -2 -305 -2 0
-175 c0 -96 -4 -181 -9 -188 -7 -11 -39 -12 -165 -7 l-156 8 -1 -54 c-1 -30
-2 -112 -3 -182 l-1 -128 -175 2 -175 2 -3 -271 -2 -272 -168 0 -168 0 -1 193
c0 105 -1 306 -3 445 l-2 252 -138 0 c-76 0 -145 3 -154 6 -14 5 -16 42 -16
305 l0 299 -129 0 c-71 0 -136 3 -145 6 -14 5 -16 29 -16 160 l0 155 -155 -4
c-85 -3 -155 -2 -156 2 0 3 -2 60 -4 126 -1 66 -3 139 -4 163 l-1 42 -62 -1
c-35 -1 -84 -1 -110 0 l-48 1 0 205 c0 113 3 206 8 206 4 1 201 3 437 4 237 2
456 3 488 4 l57 1 0 210 0 210 345 0 345 0 0 189 c0 170 2 190 18 197 9 4 123
9 252 10 129 1 245 2 257 3 l23 1 2 228 3 227 196 3 197 2 3 38 c2 20 4 219 4
442 l0 405 -235 0 c-129 0 -241 4 -247 8 -10 6 -13 54 -13 183 l0 174 148 0
147 0 0 147 0 148 159 3 c88 1 162 4 165 7 2 3 5 94 5 203 l1 197 -150 3 c-86
2 -155 8 -162 14 -10 8 -13 63 -13 224 l0 214 -47 1 c-27 1 -101 2 -165 3 -65
1 -120 5 -124 8 -6 6 -11 129 -13 316 l-1 72 -160 0 -160 0 0 190 c0 224 -19
202 173 197 l127 -3 0 198 0 199 131 -2 c72 0 133 2 137 5 3 4 5 90 4 191 l-3
186 86 -5 85 -4 2 222 3 221 97 -3 96 -4 -4 874 c-2 480 -4 917 -4 970 l0 97
-765 0 -765 0 0 -27 c0 -55 23 -53 -526 -51 -280 1 -519 1 -532 0 -23 -1 -23
-1 -21 -138 1 -76 1 -145 0 -153 -1 -13 -24 -15 -156 -12 l-155 4 0 -166 0
-166 -310 0 -310 0 0 160 c0 159 0 160 -22 161 -13 0 -260 0 -549 -1 -289 -1
-538 2 -552 5 l-25 7 4 149 5 149 -263 2 -263 3 -3 163 -2 162 -205 0 -205 0
-2 -162z m1030 -14590 c4 -13 7 -84 7 -158 l0 -135 -145 4 c-80 2 -555 4
-1057 4 -817 1 -912 2 -915 16 -2 9 -3 59 -2 111 2 52 3 114 3 138 l1 42 1050
0 1050 0 8 -22z"/>
</g>
</svg>
